<?xml version="1.0" encoding="us-ascii" standalone="no"?><svg xmlns="http://www.w3.org/2000/svg" xmlns:xlink="http://www.w3.org/1999/xlink" contentStyleType="text/css" height="1550px" preserveAspectRatio="none" style="width:950px;height:1550px;background:#FFFFFF;" version="1.1" viewBox="0 0 950 1550" width="950px" zoomAndPan="magnify"><defs/><g><!--class Pistas--><g id="elem_Pistas"><rect codeLine="1" fill="#F1F1F1" height="80.5938" id="Pistas" rx="2.5" ry="2.5" style="stroke:#181818;stroke-width:0.5;" width="98" x="552.5" y="650"/><ellipse cx="578.3" cy="666" fill="#ADD1B2" rx="11" ry="11" style="stroke:#181818;stroke-width:1.0;"/><path d="M577.0969,666.875 L578.55,666.875 L578.55,666.9844 C578.55,667.3906 578.5813,667.5469 578.6594,667.7031 C578.8156,667.9531 579.0969,668.1094 579.3938,668.1094 C579.6438,668.1094 579.9094,667.9688 580.0656,667.75 C580.1906,667.5938 580.2219,667.4375 580.2219,666.9844 L580.2219,665.0625 C580.2219,664.9063 580.2219,664.8594 580.2063,664.7031 C580.1438,664.2344 579.8313,663.9219 579.3781,663.9219 C579.1281,663.9219 578.8625,664.0625 578.6906,664.2813 C578.5813,664.4531 578.55,664.6094 578.55,665.0625 L578.55,665.1875 L577.0969,665.1875 L577.0969,662.7813 L581.0813,662.7813 L581.0813,663.6406 C581.0813,664.0469 581.1125,664.2188 581.1906,664.375 C581.3625,664.625 581.6438,664.7813 581.925,664.7813 C582.1906,664.7813 582.4563,664.6406 582.6281,664.4219 C582.7375,664.25 582.7688,664.1094 582.7688,663.6406 L582.7688,661.0938 L575.1438,661.0938 C574.7063,661.0938 574.5813,661.1094 574.425,661.2031 C574.175,661.3594 574.0188,661.6563 574.0188,661.9375 C574.0188,662.2188 574.1594,662.4688 574.3781,662.6406 C574.5344,662.75 574.7219,662.7813 575.1438,662.7813 L575.3938,662.7813 L575.3938,669.2969 L575.1438,669.2969 C574.7375,669.2969 574.5813,669.3125 574.425,669.4219 C574.175,669.5938 574.0188,669.8594 574.0188,670.1563 C574.0188,670.4219 574.1594,670.6719 574.3781,670.8281 C574.5188,670.9531 574.7531,671 575.1438,671 L583.1438,671 L583.1438,668.4219 C583.1438,667.9844 583.1125,667.8438 583.0344,667.6875 C582.8625,667.4375 582.5813,667.2813 582.3,667.2813 C582.0344,667.2813 581.7688,667.3906 581.5969,667.6406 C581.4875,667.7969 581.4563,667.9375 581.4563,668.4219 L581.4563,669.2969 L577.0969,669.2969 L577.0969,666.875 Z " fill="#000000"/><text fill="#000000" font-family="sans-serif" font-size="14" lengthAdjust="spacing" textLength="42" x="594.7" y="670.8467">Pistas</text><line style="stroke:#181818;stroke-width:0.5;" x1="553.5" x2="649.5" y1="682" y2="682"/><ellipse cx="563.5" cy="695.6484" fill="none" rx="3" ry="3" style="stroke:#038048;stroke-width:1.0;"/><text fill="#000000" font-family="sans-serif" font-size="14" lengthAdjust="spacing" textLength="57" x="572.5" y="698.9951">nombre</text><ellipse cx="563.5" cy="711.9453" fill="none" rx="3" ry="3" style="stroke:#038048;stroke-width:1.0;"/><text fill="#000000" font-family="sans-serif" font-size="14" lengthAdjust="spacing" textLength="72" x="572.5" y="715.292">capacidad</text><line style="stroke:#181818;stroke-width:0.5;" x1="553.5" x2="649.5" y1="722.5938" y2="722.5938"/></g><!--class Padel--><g id="elem_Padel"><rect codeLine="6" fill="#F1F1F1" height="64.2969" id="Padel" rx="2.5" ry="2.5" style="stroke:#181818;stroke-width:0.5;" width="153" x="790" y="854"/><ellipse cx="842.75" cy="870" fill="#ADD1B2" rx="11" ry="11" style="stroke:#181818;stroke-width:1.0;"/><path d="M841.5469,870.875 L843,870.875 L843,870.9844 C843,871.3906 843.0313,871.5469 843.1094,871.7031 C843.2656,871.9531 843.5469,872.1094 843.8438,872.1094 C844.0938,872.1094 844.3594,871.9688 844.5156,871.75 C844.6406,871.5938 844.6719,871.4375 844.6719,870.9844 L844.6719,869.0625 C844.6719,868.9063 844.6719,868.8594 844.6563,868.7031 C844.5938,868.2344 844.2813,867.9219 843.8281,867.9219 C843.5781,867.9219 843.3125,868.0625 843.1406,868.2813 C843.0313,868.4531 843,868.6094 843,869.0625 L843,869.1875 L841.5469,869.1875 L841.5469,866.7813 L845.5313,866.7813 L845.5313,867.6406 C845.5313,868.0469 845.5625,868.2188 845.6406,868.375 C845.8125,868.625 846.0938,868.7813 846.375,868.7813 C846.6406,868.7813 846.9063,868.6406 847.0781,868.4219 C847.1875,868.25 847.2188,868.1094 847.2188,867.6406 L847.2188,865.0938 L839.5938,865.0938 C839.1563,865.0938 839.0313,865.1094 838.875,865.2031 C838.625,865.3594 838.4688,865.6563 838.4688,865.9375 C838.4688,866.2188 838.6094,866.4688 838.8281,866.6406 C838.9844,866.75 839.1719,866.7813 839.5938,866.7813 L839.8438,866.7813 L839.8438,873.2969 L839.5938,873.2969 C839.1875,873.2969 839.0313,873.3125 838.875,873.4219 C838.625,873.5938 838.4688,873.8594 838.4688,874.1563 C838.4688,874.4219 838.6094,874.6719 838.8281,874.8281 C838.9688,874.9531 839.2031,875 839.5938,875 L847.5938,875 L847.5938,872.4219 C847.5938,871.9844 847.5625,871.8438 847.4844,871.6875 C847.3125,871.4375 847.0313,871.2813 846.75,871.2813 C846.4844,871.2813 846.2188,871.3906 846.0469,871.6406 C845.9375,871.7969 845.9063,871.9375 845.9063,872.4219 L845.9063,873.2969 L841.5469,873.2969 L841.5469,870.875 Z " fill="#000000"/><text fill="#000000" font-family="sans-serif" font-size="14" lengthAdjust="spacing" textLength="39" x="863.25" y="874.8467">Padel</text><line style="stroke:#181818;stroke-width:0.5;" x1="791" x2="942" y1="886" y2="886"/><ellipse cx="801" cy="899.6484" fill="none" rx="3" ry="3" style="stroke:#038048;stroke-width:1.0;"/><text fill="#000000" font-family="sans-serif" font-size="14" lengthAdjust="spacing" textLength="127" x="810" y="902.9951">CapasidadMaxima</text><line style="stroke:#181818;stroke-width:0.5;" x1="791" x2="942" y1="910.2969" y2="910.2969"/></g><!--class Polideportivo--><g id="elem_Polideportivo"><rect codeLine="10" fill="#F1F1F1" height="64.2969" id="Polideportivo" rx="2.5" ry="2.5" style="stroke:#181818;stroke-width:0.5;" width="153" x="390" y="854"/><ellipse cx="415.8" cy="870" fill="#ADD1B2" rx="11" ry="11" style="stroke:#181818;stroke-width:1.0;"/><path d="M414.5969,870.875 L416.05,870.875 L416.05,870.9844 C416.05,871.3906 416.0813,871.5469 416.1594,871.7031 C416.3156,871.9531 416.5969,872.1094 416.8938,872.1094 C417.1438,872.1094 417.4094,871.9688 417.5656,871.75 C417.6906,871.5938 417.7219,871.4375 417.7219,870.9844 L417.7219,869.0625 C417.7219,868.9063 417.7219,868.8594 417.7063,868.7031 C417.6438,868.2344 417.3313,867.9219 416.8781,867.9219 C416.6281,867.9219 416.3625,868.0625 416.1906,868.2813 C416.0813,868.4531 416.05,868.6094 416.05,869.0625 L416.05,869.1875 L414.5969,869.1875 L414.5969,866.7813 L418.5813,866.7813 L418.5813,867.6406 C418.5813,868.0469 418.6125,868.2188 418.6906,868.375 C418.8625,868.625 419.1438,868.7813 419.425,868.7813 C419.6906,868.7813 419.9563,868.6406 420.1281,868.4219 C420.2375,868.25 420.2688,868.1094 420.2688,867.6406 L420.2688,865.0938 L412.6438,865.0938 C412.2063,865.0938 412.0813,865.1094 411.925,865.2031 C411.675,865.3594 411.5188,865.6563 411.5188,865.9375 C411.5188,866.2188 411.6594,866.4688 411.8781,866.6406 C412.0344,866.75 412.2219,866.7813 412.6438,866.7813 L412.8938,866.7813 L412.8938,873.2969 L412.6438,873.2969 C412.2375,873.2969 412.0813,873.3125 411.925,873.4219 C411.675,873.5938 411.5188,873.8594 411.5188,874.1563 C411.5188,874.4219 411.6594,874.6719 411.8781,874.8281 C412.0188,874.9531 412.2531,875 412.6438,875 L420.6438,875 L420.6438,872.4219 C420.6438,871.9844 420.6125,871.8438 420.5344,871.6875 C420.3625,871.4375 420.0813,871.2813 419.8,871.2813 C419.5344,871.2813 419.2688,871.3906 419.0969,871.6406 C418.9875,871.7969 418.9563,871.9375 418.9563,872.4219 L418.9563,873.2969 L414.5969,873.2969 L414.5969,870.875 Z " fill="#000000"/><text fill="#000000" font-family="sans-serif" font-size="14" lengthAdjust="spacing" textLength="97" x="432.2" y="874.8467">Polideportivo</text><line style="stroke:#181818;stroke-width:0.5;" x1="391" x2="542" y1="886" y2="886"/><ellipse cx="401" cy="899.6484" fill="none" rx="3" ry="3" style="stroke:#038048;stroke-width:1.0;"/><text fill="#000000" font-family="sans-serif" font-size="14" lengthAdjust="spacing" textLength="127" x="410" y="902.9951">CapasidadMaxima</text><line style="stroke:#181818;stroke-width:0.5;" x1="391" x2="542" y1="910.2969" y2="910.2969"/></g><!--class Voleibol--><g id="elem_Voleibol"><rect codeLine="14" fill="#F1F1F1" height="64.2969" id="Voleibol" rx="2.5" ry="2.5" style="stroke:#181818;stroke-width:0.5;" width="176" x="578.5" y="854"/><ellipse cx="632.75" cy="870" fill="#ADD1B2" rx="11" ry="11" style="stroke:#181818;stroke-width:1.0;"/><path d="M631.5469,870.875 L633,870.875 L633,870.9844 C633,871.3906 633.0313,871.5469 633.1094,871.7031 C633.2656,871.9531 633.5469,872.1094 633.8438,872.1094 C634.0938,872.1094 634.3594,871.9688 634.5156,871.75 C634.6406,871.5938 634.6719,871.4375 634.6719,870.9844 L634.6719,869.0625 C634.6719,868.9063 634.6719,868.8594 634.6563,868.7031 C634.5938,868.2344 634.2813,867.9219 633.8281,867.9219 C633.5781,867.9219 633.3125,868.0625 633.1406,868.2813 C633.0313,868.4531 633,868.6094 633,869.0625 L633,869.1875 L631.5469,869.1875 L631.5469,866.7813 L635.5313,866.7813 L635.5313,867.6406 C635.5313,868.0469 635.5625,868.2188 635.6406,868.375 C635.8125,868.625 636.0938,868.7813 636.375,868.7813 C636.6406,868.7813 636.9063,868.6406 637.0781,868.4219 C637.1875,868.25 637.2188,868.1094 637.2188,867.6406 L637.2188,865.0938 L629.5938,865.0938 C629.1563,865.0938 629.0313,865.1094 628.875,865.2031 C628.625,865.3594 628.4688,865.6563 628.4688,865.9375 C628.4688,866.2188 628.6094,866.4688 628.8281,866.6406 C628.9844,866.75 629.1719,866.7813 629.5938,866.7813 L629.8438,866.7813 L629.8438,873.2969 L629.5938,873.2969 C629.1875,873.2969 629.0313,873.3125 628.875,873.4219 C628.625,873.5938 628.4688,873.8594 628.4688,874.1563 C628.4688,874.4219 628.6094,874.6719 628.8281,874.8281 C628.9688,874.9531 629.2031,875 629.5938,875 L637.5938,875 L637.5938,872.4219 C637.5938,871.9844 637.5625,871.8438 637.4844,871.6875 C637.3125,871.4375 637.0313,871.2813 636.75,871.2813 C636.4844,871.2813 636.2188,871.3906 636.0469,871.6406 C635.9375,871.7969 635.9063,871.9375 635.9063,872.4219 L635.9063,873.2969 L631.5469,873.2969 L631.5469,870.875 Z " fill="#000000"/><text fill="#000000" font-family="sans-serif" font-size="14" lengthAdjust="spacing" textLength="59" x="653.25" y="874.8467">Voleibol</text><line style="stroke:#181818;stroke-width:0.5;" x1="579.5" x2="753.5" y1="886" y2="886"/><ellipse cx="589.5" cy="899.6484" fill="none" rx="3" ry="3" style="stroke:#038048;stroke-width:1.0;"/><text fill="#000000" font-family="sans-serif" font-size="14" lengthAdjust="spacing" textLength="150" x="598.5" y="902.9951">CapasidadMaximaipo</text><line style="stroke:#181818;stroke-width:0.5;" x1="579.5" x2="753.5" y1="910.2969" y2="910.2969"/></g><!--class Calendario--><g id="elem_Calendario"><rect codeLine="18" fill="#F1F1F1" height="64.2969" id="Calendario" rx="2.5" ry="2.5" style="stroke:#181818;stroke-width:0.5;" width="108" x="349.5" y="1260"/><ellipse cx="364.5" cy="1276" fill="#ADD1B2" rx="11" ry="11" style="stroke:#181818;stroke-width:1.0;"/><path d="M363.2969,1276.875 L364.75,1276.875 L364.75,1276.9844 C364.75,1277.3906 364.7813,1277.5469 364.8594,1277.7031 C365.0156,1277.9531 365.2969,1278.1094 365.5938,1278.1094 C365.8438,1278.1094 366.1094,1277.9688 366.2656,1277.75 C366.3906,1277.5938 366.4219,1277.4375 366.4219,1276.9844 L366.4219,1275.0625 C366.4219,1274.9063 366.4219,1274.8594 366.4063,1274.7031 C366.3438,1274.2344 366.0313,1273.9219 365.5781,1273.9219 C365.3281,1273.9219 365.0625,1274.0625 364.8906,1274.2813 C364.7813,1274.4531 364.75,1274.6094 364.75,1275.0625 L364.75,1275.1875 L363.2969,1275.1875 L363.2969,1272.7813 L367.2813,1272.7813 L367.2813,1273.6406 C367.2813,1274.0469 367.3125,1274.2188 367.3906,1274.375 C367.5625,1274.625 367.8438,1274.7813 368.125,1274.7813 C368.3906,1274.7813 368.6563,1274.6406 368.8281,1274.4219 C368.9375,1274.25 368.9688,1274.1094 368.9688,1273.6406 L368.9688,1271.0938 L361.3438,1271.0938 C360.9063,1271.0938 360.7813,1271.1094 360.625,1271.2031 C360.375,1271.3594 360.2188,1271.6563 360.2188,1271.9375 C360.2188,1272.2188 360.3594,1272.4688 360.5781,1272.6406 C360.7344,1272.75 360.9219,1272.7813 361.3438,1272.7813 L361.5938,1272.7813 L361.5938,1279.2969 L361.3438,1279.2969 C360.9375,1279.2969 360.7813,1279.3125 360.625,1279.4219 C360.375,1279.5938 360.2188,1279.8594 360.2188,1280.1563 C360.2188,1280.4219 360.3594,1280.6719 360.5781,1280.8281 C360.7188,1280.9531 360.9531,1281 361.3438,1281 L369.3438,1281 L369.3438,1278.4219 C369.3438,1277.9844 369.3125,1277.8438 369.2344,1277.6875 C369.0625,1277.4375 368.7813,1277.2813 368.5,1277.2813 C368.2344,1277.2813 367.9688,1277.3906 367.7969,1277.6406 C367.6875,1277.7969 367.6563,1277.9375 367.6563,1278.4219 L367.6563,1279.2969 L363.2969,1279.2969 L363.2969,1276.875 Z " fill="#000000"/><text fill="#000000" font-family="sans-serif" font-size="14" lengthAdjust="spacing" textLength="76" x="378.5" y="1280.8467">Calendario</text><line style="stroke:#181818;stroke-width:0.5;" x1="350.5" x2="456.5" y1="1292" y2="1292"/><ellipse cx="360.5" cy="1305.6484" fill="none" rx="3" ry="3" style="stroke:#038048;stroke-width:1.0;"/><text fill="#000000" font-family="sans-serif" font-size="14" lengthAdjust="spacing" textLength="58" x="369.5" y="1308.9951">eventos</text><line style="stroke:#181818;stroke-width:0.5;" x1="350.5" x2="456.5" y1="1316.2969" y2="1316.2969"/></g><!--class Usuario--><g id="elem_Usuario"><rect codeLine="22" fill="#F1F1F1" height="96.8906" id="Usuario" rx="2.5" ry="2.5" style="stroke:#181818;stroke-width:0.5;" width="88" x="424.5" y="194"/><ellipse cx="441.75" cy="210" fill="#ADD1B2" rx="11" ry="11" style="stroke:#181818;stroke-width:1.0;"/><path d="M440.5469,210.875 L442,210.875 L442,210.9844 C442,211.3906 442.0313,211.5469 442.1094,211.7031 C442.2656,211.9531 442.5469,212.1094 442.8438,212.1094 C443.0938,212.1094 443.3594,211.9688 443.5156,211.75 C443.6406,211.5938 443.6719,211.4375 443.6719,210.9844 L443.6719,209.0625 C443.6719,208.9063 443.6719,208.8594 443.6563,208.7031 C443.5938,208.2344 443.2813,207.9219 442.8281,207.9219 C442.5781,207.9219 442.3125,208.0625 442.1406,208.2813 C442.0313,208.4531 442,208.6094 442,209.0625 L442,209.1875 L440.5469,209.1875 L440.5469,206.7813 L444.5313,206.7813 L444.5313,207.6406 C444.5313,208.0469 444.5625,208.2188 444.6406,208.375 C444.8125,208.625 445.0938,208.7813 445.375,208.7813 C445.6406,208.7813 445.9063,208.6406 446.0781,208.4219 C446.1875,208.25 446.2188,208.1094 446.2188,207.6406 L446.2188,205.0938 L438.5938,205.0938 C438.1563,205.0938 438.0313,205.1094 437.875,205.2031 C437.625,205.3594 437.4688,205.6563 437.4688,205.9375 C437.4688,206.2188 437.6094,206.4688 437.8281,206.6406 C437.9844,206.75 438.1719,206.7813 438.5938,206.7813 L438.8438,206.7813 L438.8438,213.2969 L438.5938,213.2969 C438.1875,213.2969 438.0313,213.3125 437.875,213.4219 C437.625,213.5938 437.4688,213.8594 437.4688,214.1563 C437.4688,214.4219 437.6094,214.6719 437.8281,214.8281 C437.9688,214.9531 438.2031,215 438.5938,215 L446.5938,215 L446.5938,212.4219 C446.5938,211.9844 446.5625,211.8438 446.4844,211.6875 C446.3125,211.4375 446.0313,211.2813 445.75,211.2813 C445.4844,211.2813 445.2188,211.3906 445.0469,211.6406 C444.9375,211.7969 444.9063,211.9375 444.9063,212.4219 L444.9063,213.2969 L440.5469,213.2969 L440.5469,210.875 Z " fill="#000000"/><text fill="#000000" font-family="sans-serif" font-size="14" lengthAdjust="spacing" textLength="51" x="456.25" y="214.8467">Usuario</text><line style="stroke:#181818;stroke-width:0.5;" x1="425.5" x2="511.5" y1="226" y2="226"/><ellipse cx="435.5" cy="239.6484" fill="none" rx="3" ry="3" style="stroke:#038048;stroke-width:1.0;"/><text fill="#000000" font-family="sans-serif" font-size="14" lengthAdjust="spacing" textLength="57" x="444.5" y="242.9951">nombre</text><ellipse cx="435.5" cy="255.9453" fill="none" rx="3" ry="3" style="stroke:#038048;stroke-width:1.0;"/><text fill="#000000" font-family="sans-serif" font-size="14" lengthAdjust="spacing" textLength="39" x="444.5" y="259.292">email</text><ellipse cx="435.5" cy="272.2422" fill="none" rx="3" ry="3" style="stroke:#038048;stroke-width:1.0;"/><text fill="#000000" font-family="sans-serif" font-size="14" lengthAdjust="spacing" textLength="62" x="444.5" y="275.5889">telefono</text><line style="stroke:#181818;stroke-width:0.5;" x1="425.5" x2="511.5" y1="282.8906" y2="282.8906"/></g><!--class Pagos--><g id="elem_Pagos"><rect codeLine="28" fill="#F1F1F1" height="80.5938" id="Pagos" rx="2.5" ry="2.5" style="stroke:#181818;stroke-width:0.5;" width="118" x="595.5" y="202"/><ellipse cx="630.3" cy="218" fill="#ADD1B2" rx="11" ry="11" style="stroke:#181818;stroke-width:1.0;"/><path d="M629.0969,218.875 L630.55,218.875 L630.55,218.9844 C630.55,219.3906 630.5813,219.5469 630.6594,219.7031 C630.8156,219.9531 631.0969,220.1094 631.3938,220.1094 C631.6438,220.1094 631.9094,219.9688 632.0656,219.75 C632.1906,219.5938 632.2219,219.4375 632.2219,218.9844 L632.2219,217.0625 C632.2219,216.9063 632.2219,216.8594 632.2063,216.7031 C632.1438,216.2344 631.8313,215.9219 631.3781,215.9219 C631.1281,215.9219 630.8625,216.0625 630.6906,216.2813 C630.5813,216.4531 630.55,216.6094 630.55,217.0625 L630.55,217.1875 L629.0969,217.1875 L629.0969,214.7813 L633.0813,214.7813 L633.0813,215.6406 C633.0813,216.0469 633.1125,216.2188 633.1906,216.375 C633.3625,216.625 633.6438,216.7813 633.925,216.7813 C634.1906,216.7813 634.4563,216.6406 634.6281,216.4219 C634.7375,216.25 634.7688,216.1094 634.7688,215.6406 L634.7688,213.0938 L627.1438,213.0938 C626.7063,213.0938 626.5813,213.1094 626.425,213.2031 C626.175,213.3594 626.0188,213.6563 626.0188,213.9375 C626.0188,214.2188 626.1594,214.4688 626.3781,214.6406 C626.5344,214.75 626.7219,214.7813 627.1438,214.7813 L627.3938,214.7813 L627.3938,221.2969 L627.1438,221.2969 C626.7375,221.2969 626.5813,221.3125 626.425,221.4219 C626.175,221.5938 626.0188,221.8594 626.0188,222.1563 C626.0188,222.4219 626.1594,222.6719 626.3781,222.8281 C626.5188,222.9531 626.7531,223 627.1438,223 L635.1438,223 L635.1438,220.4219 C635.1438,219.9844 635.1125,219.8438 635.0344,219.6875 C634.8625,219.4375 634.5813,219.2813 634.3,219.2813 C634.0344,219.2813 633.7688,219.3906 633.5969,219.6406 C633.4875,219.7969 633.4563,219.9375 633.4563,220.4219 L633.4563,221.2969 L629.0969,221.2969 L629.0969,218.875 Z " fill="#000000"/><text fill="#000000" font-family="sans-serif" font-size="14" lengthAdjust="spacing" textLength="42" x="648.7" y="222.8467">Pagos</text><line style="stroke:#181818;stroke-width:0.5;" x1="596.5" x2="712.5" y1="234" y2="234"/><ellipse cx="606.5" cy="247.6484" fill="none" rx="3" ry="3" style="stroke:#038048;stroke-width:1.0;"/><text fill="#000000" font-family="sans-serif" font-size="14" lengthAdjust="spacing" textLength="92" x="615.5" y="250.9951">metodoPago</text><ellipse cx="606.5" cy="263.9453" fill="none" rx="3" ry="3" style="stroke:#038048;stroke-width:1.0;"/><text fill="#000000" font-family="sans-serif" font-size="14" lengthAdjust="spacing" textLength="48" x="615.5" y="267.292">monto</text><line style="stroke:#181818;stroke-width:0.5;" x1="596.5" x2="712.5" y1="274.5938" y2="274.5938"/></g><!--class Factura--><g id="elem_Factura"><rect codeLine="33" fill="#F1F1F1" height="80.5938" id="Factura" rx="2.5" ry="2.5" style="stroke:#181818;stroke-width:0.5;" width="122" x="522.5" y="430"/><ellipse cx="554.15" cy="446" fill="#ADD1B2" rx="11" ry="11" style="stroke:#181818;stroke-width:1.0;"/><path d="M552.9469,446.875 L554.4,446.875 L554.4,446.9844 C554.4,447.3906 554.4313,447.5469 554.5094,447.7031 C554.6656,447.9531 554.9469,448.1094 555.2438,448.1094 C555.4938,448.1094 555.7594,447.9688 555.9156,447.75 C556.0406,447.5938 556.0719,447.4375 556.0719,446.9844 L556.0719,445.0625 C556.0719,444.9063 556.0719,444.8594 556.0563,444.7031 C555.9938,444.2344 555.6813,443.9219 555.2281,443.9219 C554.9781,443.9219 554.7125,444.0625 554.5406,444.2813 C554.4313,444.4531 554.4,444.6094 554.4,445.0625 L554.4,445.1875 L552.9469,445.1875 L552.9469,442.7813 L556.9313,442.7813 L556.9313,443.6406 C556.9313,444.0469 556.9625,444.2188 557.0406,444.375 C557.2125,444.625 557.4938,444.7813 557.775,444.7813 C558.0406,444.7813 558.3063,444.6406 558.4781,444.4219 C558.5875,444.25 558.6188,444.1094 558.6188,443.6406 L558.6188,441.0938 L550.9938,441.0938 C550.5563,441.0938 550.4313,441.1094 550.275,441.2031 C550.025,441.3594 549.8688,441.6563 549.8688,441.9375 C549.8688,442.2188 550.0094,442.4688 550.2281,442.6406 C550.3844,442.75 550.5719,442.7813 550.9938,442.7813 L551.2438,442.7813 L551.2438,449.2969 L550.9938,449.2969 C550.5875,449.2969 550.4313,449.3125 550.275,449.4219 C550.025,449.5938 549.8688,449.8594 549.8688,450.1563 C549.8688,450.4219 550.0094,450.6719 550.2281,450.8281 C550.3688,450.9531 550.6031,451 550.9938,451 L558.9938,451 L558.9938,448.4219 C558.9938,447.9844 558.9625,447.8438 558.8844,447.6875 C558.7125,447.4375 558.4313,447.2813 558.15,447.2813 C557.8844,447.2813 557.6188,447.3906 557.4469,447.6406 C557.3375,447.7969 557.3063,447.9375 557.3063,448.4219 L557.3063,449.2969 L552.9469,449.2969 L552.9469,446.875 Z " fill="#000000"/><text fill="#000000" font-family="sans-serif" font-size="14" lengthAdjust="spacing" textLength="53" x="571.85" y="450.8467">Factura</text><line style="stroke:#181818;stroke-width:0.5;" x1="523.5" x2="643.5" y1="462" y2="462"/><ellipse cx="533.5" cy="475.6484" fill="none" rx="3" ry="3" style="stroke:#038048;stroke-width:1.0;"/><text fill="#000000" font-family="sans-serif" font-size="14" lengthAdjust="spacing" textLength="96" x="542.5" y="478.9951">fechaEmision</text><ellipse cx="533.5" cy="491.9453" fill="none" rx="3" ry="3" style="stroke:#038048;stroke-width:1.0;"/><text fill="#000000" font-family="sans-serif" font-size="14" lengthAdjust="spacing" textLength="35" x="542.5" y="495.292">total</text><line style="stroke:#181818;stroke-width:0.5;" x1="523.5" x2="643.5" y1="502.5938" y2="502.5938"/></g><!--class Tarifas--><g id="elem_Tarifas"><rect codeLine="38" fill="#F1F1F1" height="64.2969" id="Tarifas" rx="2.5" ry="2.5" style="stroke:#181818;stroke-width:0.5;" width="105" x="722" y="658.5"/><ellipse cx="748.25" cy="674.5" fill="#ADD1B2" rx="11" ry="11" style="stroke:#181818;stroke-width:1.0;"/><path d="M747.0469,675.375 L748.5,675.375 L748.5,675.4844 C748.5,675.8906 748.5313,676.0469 748.6094,676.2031 C748.7656,676.4531 749.0469,676.6094 749.3438,676.6094 C749.5938,676.6094 749.8594,676.4688 750.0156,676.25 C750.1406,676.0938 750.1719,675.9375 750.1719,675.4844 L750.1719,673.5625 C750.1719,673.4063 750.1719,673.3594 750.1563,673.2031 C750.0938,672.7344 749.7813,672.4219 749.3281,672.4219 C749.0781,672.4219 748.8125,672.5625 748.6406,672.7813 C748.5313,672.9531 748.5,673.1094 748.5,673.5625 L748.5,673.6875 L747.0469,673.6875 L747.0469,671.2813 L751.0313,671.2813 L751.0313,672.1406 C751.0313,672.5469 751.0625,672.7188 751.1406,672.875 C751.3125,673.125 751.5938,673.2813 751.875,673.2813 C752.1406,673.2813 752.4063,673.1406 752.5781,672.9219 C752.6875,672.75 752.7188,672.6094 752.7188,672.1406 L752.7188,669.5938 L745.0938,669.5938 C744.6563,669.5938 744.5313,669.6094 744.375,669.7031 C744.125,669.8594 743.9688,670.1563 743.9688,670.4375 C743.9688,670.7188 744.1094,670.9688 744.3281,671.1406 C744.4844,671.25 744.6719,671.2813 745.0938,671.2813 L745.3438,671.2813 L745.3438,677.7969 L745.0938,677.7969 C744.6875,677.7969 744.5313,677.8125 744.375,677.9219 C744.125,678.0938 743.9688,678.3594 743.9688,678.6563 C743.9688,678.9219 744.1094,679.1719 744.3281,679.3281 C744.4688,679.4531 744.7031,679.5 745.0938,679.5 L753.0938,679.5 L753.0938,676.9219 C753.0938,676.4844 753.0625,676.3438 752.9844,676.1875 C752.8125,675.9375 752.5313,675.7813 752.25,675.7813 C751.9844,675.7813 751.7188,675.8906 751.5469,676.1406 C751.4375,676.2969 751.4063,676.4375 751.4063,676.9219 L751.4063,677.7969 L747.0469,677.7969 L747.0469,675.375 Z " fill="#000000"/><text fill="#000000" font-family="sans-serif" font-size="14" lengthAdjust="spacing" textLength="48" x="764.75" y="679.3467">Tarifas</text><line style="stroke:#181818;stroke-width:0.5;" x1="723" x2="826" y1="690.5" y2="690.5"/><ellipse cx="733" cy="704.1484" fill="none" rx="3" ry="3" style="stroke:#038048;stroke-width:1.0;"/><text fill="#000000" font-family="sans-serif" font-size="14" lengthAdjust="spacing" textLength="79" x="742" y="707.4951">precioHora</text><line style="stroke:#181818;stroke-width:0.5;" x1="723" x2="826" y1="714.7969" y2="714.7969"/></g><!--class Disponibilidad--><g id="elem_Disponibilidad"><rect codeLine="42" fill="#F1F1F1" height="64.2969" id="Disponibilidad" rx="2.5" ry="2.5" style="stroke:#181818;stroke-width:0.5;" width="149" x="491" y="1057"/><ellipse cx="512.75" cy="1073" fill="#ADD1B2" rx="11" ry="11" style="stroke:#181818;stroke-width:1.0;"/><path d="M511.5469,1073.875 L513,1073.875 L513,1073.9844 C513,1074.3906 513.0313,1074.5469 513.1094,1074.7031 C513.2656,1074.9531 513.5469,1075.1094 513.8438,1075.1094 C514.0938,1075.1094 514.3594,1074.9688 514.5156,1074.75 C514.6406,1074.5938 514.6719,1074.4375 514.6719,1073.9844 L514.6719,1072.0625 C514.6719,1071.9063 514.6719,1071.8594 514.6563,1071.7031 C514.5938,1071.2344 514.2813,1070.9219 513.8281,1070.9219 C513.5781,1070.9219 513.3125,1071.0625 513.1406,1071.2813 C513.0313,1071.4531 513,1071.6094 513,1072.0625 L513,1072.1875 L511.5469,1072.1875 L511.5469,1069.7813 L515.5313,1069.7813 L515.5313,1070.6406 C515.5313,1071.0469 515.5625,1071.2188 515.6406,1071.375 C515.8125,1071.625 516.0938,1071.7813 516.375,1071.7813 C516.6406,1071.7813 516.9063,1071.6406 517.0781,1071.4219 C517.1875,1071.25 517.2188,1071.1094 517.2188,1070.6406 L517.2188,1068.0938 L509.5938,1068.0938 C509.1563,1068.0938 509.0313,1068.1094 508.875,1068.2031 C508.625,1068.3594 508.4688,1068.6563 508.4688,1068.9375 C508.4688,1069.2188 508.6094,1069.4688 508.8281,1069.6406 C508.9844,1069.75 509.1719,1069.7813 509.5938,1069.7813 L509.8438,1069.7813 L509.8438,1076.2969 L509.5938,1076.2969 C509.1875,1076.2969 509.0313,1076.3125 508.875,1076.4219 C508.625,1076.5938 508.4688,1076.8594 508.4688,1077.1563 C508.4688,1077.4219 508.6094,1077.6719 508.8281,1077.8281 C508.9688,1077.9531 509.2031,1078 509.5938,1078 L517.5938,1078 L517.5938,1075.4219 C517.5938,1074.9844 517.5625,1074.8438 517.4844,1074.6875 C517.3125,1074.4375 517.0313,1074.2813 516.75,1074.2813 C516.4844,1074.2813 516.2188,1074.3906 516.0469,1074.6406 C515.9375,1074.7969 515.9063,1074.9375 515.9063,1075.4219 L515.9063,1076.2969 L511.5469,1076.2969 L511.5469,1073.875 Z " fill="#000000"/><text fill="#000000" font-family="sans-serif" font-size="14" lengthAdjust="spacing" textLength="102" x="528.25" y="1077.8467">Disponibilidad</text><line style="stroke:#181818;stroke-width:0.5;" x1="492" x2="639" y1="1089" y2="1089"/><ellipse cx="502" cy="1102.6484" fill="none" rx="3" ry="3" style="stroke:#038048;stroke-width:1.0;"/><text fill="#000000" font-family="sans-serif" font-size="14" lengthAdjust="spacing" textLength="123" x="511" y="1105.9951">horasDisponibles</text><line style="stroke:#181818;stroke-width:0.5;" x1="492" x2="639" y1="1113.2969" y2="1113.2969"/></g><!--class Reserva--><g id="elem_Reserva"><rect codeLine="46" fill="#F1F1F1" height="80.5938" id="Reserva" rx="2.5" ry="2.5" style="stroke:#181818;stroke-width:0.5;" width="104" x="312.5" y="430"/><ellipse cx="334.25" cy="446" fill="#ADD1B2" rx="11" ry="11" style="stroke:#181818;stroke-width:1.0;"/><path d="M333.0469,446.875 L334.5,446.875 L334.5,446.9844 C334.5,447.3906 334.5313,447.5469 334.6094,447.7031 C334.7656,447.9531 335.0469,448.1094 335.3438,448.1094 C335.5938,448.1094 335.8594,447.9688 336.0156,447.75 C336.1406,447.5938 336.1719,447.4375 336.1719,446.9844 L336.1719,445.0625 C336.1719,444.9063 336.1719,444.8594 336.1563,444.7031 C336.0938,444.2344 335.7813,443.9219 335.3281,443.9219 C335.0781,443.9219 334.8125,444.0625 334.6406,444.2813 C334.5313,444.4531 334.5,444.6094 334.5,445.0625 L334.5,445.1875 L333.0469,445.1875 L333.0469,442.7813 L337.0313,442.7813 L337.0313,443.6406 C337.0313,444.0469 337.0625,444.2188 337.1406,444.375 C337.3125,444.625 337.5938,444.7813 337.875,444.7813 C338.1406,444.7813 338.4063,444.6406 338.5781,444.4219 C338.6875,444.25 338.7188,444.1094 338.7188,443.6406 L338.7188,441.0938 L331.0938,441.0938 C330.6563,441.0938 330.5313,441.1094 330.375,441.2031 C330.125,441.3594 329.9688,441.6563 329.9688,441.9375 C329.9688,442.2188 330.1094,442.4688 330.3281,442.6406 C330.4844,442.75 330.6719,442.7813 331.0938,442.7813 L331.3438,442.7813 L331.3438,449.2969 L331.0938,449.2969 C330.6875,449.2969 330.5313,449.3125 330.375,449.4219 C330.125,449.5938 329.9688,449.8594 329.9688,450.1563 C329.9688,450.4219 330.1094,450.6719 330.3281,450.8281 C330.4688,450.9531 330.7031,451 331.0938,451 L339.0938,451 L339.0938,448.4219 C339.0938,447.9844 339.0625,447.8438 338.9844,447.6875 C338.8125,447.4375 338.5313,447.2813 338.25,447.2813 C337.9844,447.2813 337.7188,447.3906 337.5469,447.6406 C337.4375,447.7969 337.4063,447.9375 337.4063,448.4219 L337.4063,449.2969 L333.0469,449.2969 L333.0469,446.875 Z " fill="#000000"/><text fill="#000000" font-family="sans-serif" font-size="14" lengthAdjust="spacing" textLength="57" x="349.75" y="450.8467">Reserva</text><line style="stroke:#181818;stroke-width:0.5;" x1="313.5" x2="415.5" y1="462" y2="462"/><ellipse cx="323.5" cy="475.6484" fill="none" rx="3" ry="3" style="stroke:#038048;stroke-width:1.0;"/><text fill="#000000" font-family="sans-serif" font-size="14" lengthAdjust="spacing" textLength="78" x="332.5" y="478.9951">fechaInicio</text><ellipse cx="323.5" cy="491.9453" fill="none" rx="3" ry="3" style="stroke:#038048;stroke-width:1.0;"/><text fill="#000000" font-family="sans-serif" font-size="14" lengthAdjust="spacing" textLength="61" x="332.5" y="495.292">fechaFin</text><line style="stroke:#181818;stroke-width:0.5;" x1="313.5" x2="415.5" y1="502.5938" y2="502.5938"/></g><!--class CancelarReserva--><g id="elem_CancelarReserva"><rect codeLine="51" fill="#F1F1F1" height="48" id="CancelarReserva" rx="2.5" ry="2.5" style="stroke:#181818;stroke-width:0.5;" width="151" x="7" y="446.5"/><ellipse cx="22" cy="462.5" fill="#ADD1B2" rx="11" ry="11" style="stroke:#181818;stroke-width:1.0;"/><path d="M20.7969,463.375 L22.25,463.375 L22.25,463.4844 C22.25,463.8906 22.2813,464.0469 22.3594,464.2031 C22.5156,464.4531 22.7969,464.6094 23.0938,464.6094 C23.3438,464.6094 23.6094,464.4688 23.7656,464.25 C23.8906,464.0938 23.9219,463.9375 23.9219,463.4844 L23.9219,461.5625 C23.9219,461.4063 23.9219,461.3594 23.9063,461.2031 C23.8438,460.7344 23.5313,460.4219 23.0781,460.4219 C22.8281,460.4219 22.5625,460.5625 22.3906,460.7813 C22.2813,460.9531 22.25,461.1094 22.25,461.5625 L22.25,461.6875 L20.7969,461.6875 L20.7969,459.2813 L24.7813,459.2813 L24.7813,460.1406 C24.7813,460.5469 24.8125,460.7188 24.8906,460.875 C25.0625,461.125 25.3438,461.2813 25.625,461.2813 C25.8906,461.2813 26.1563,461.1406 26.3281,460.9219 C26.4375,460.75 26.4688,460.6094 26.4688,460.1406 L26.4688,457.5938 L18.8438,457.5938 C18.4063,457.5938 18.2813,457.6094 18.125,457.7031 C17.875,457.8594 17.7188,458.1563 17.7188,458.4375 C17.7188,458.7188 17.8594,458.9688 18.0781,459.1406 C18.2344,459.25 18.4219,459.2813 18.8438,459.2813 L19.0938,459.2813 L19.0938,465.7969 L18.8438,465.7969 C18.4375,465.7969 18.2813,465.8125 18.125,465.9219 C17.875,466.0938 17.7188,466.3594 17.7188,466.6563 C17.7188,466.9219 17.8594,467.1719 18.0781,467.3281 C18.2188,467.4531 18.4531,467.5 18.8438,467.5 L26.8438,467.5 L26.8438,464.9219 C26.8438,464.4844 26.8125,464.3438 26.7344,464.1875 C26.5625,463.9375 26.2813,463.7813 26,463.7813 C25.7344,463.7813 25.4688,463.8906 25.2969,464.1406 C25.1875,464.2969 25.1563,464.4375 25.1563,464.9219 L25.1563,465.7969 L20.7969,465.7969 L20.7969,463.375 Z " fill="#000000"/><text fill="#000000" font-family="sans-serif" font-size="14" lengthAdjust="spacing" textLength="119" x="36" y="467.3467">CancelarReserva</text><line style="stroke:#181818;stroke-width:0.5;" x1="8" x2="157" y1="478.5" y2="478.5"/><line style="stroke:#181818;stroke-width:0.5;" x1="8" x2="157" y1="486.5" y2="486.5"/></g><!--class Fecha--><g id="elem_Fecha"><rect codeLine="54" fill="#F1F1F1" height="96.8906" id="Fecha" rx="2.5" ry="2.5" style="stroke:#181818;stroke-width:0.5;" width="74" x="309.5" y="1447"/><ellipse cx="324.5" cy="1463" fill="#ADD1B2" rx="11" ry="11" style="stroke:#181818;stroke-width:1.0;"/><path d="M323.2969,1463.875 L324.75,1463.875 L324.75,1463.9844 C324.75,1464.3906 324.7813,1464.5469 324.8594,1464.7031 C325.0156,1464.9531 325.2969,1465.1094 325.5938,1465.1094 C325.8438,1465.1094 326.1094,1464.9688 326.2656,1464.75 C326.3906,1464.5938 326.4219,1464.4375 326.4219,1463.9844 L326.4219,1462.0625 C326.4219,1461.9063 326.4219,1461.8594 326.4063,1461.7031 C326.3438,1461.2344 326.0313,1460.9219 325.5781,1460.9219 C325.3281,1460.9219 325.0625,1461.0625 324.8906,1461.2813 C324.7813,1461.4531 324.75,1461.6094 324.75,1462.0625 L324.75,1462.1875 L323.2969,1462.1875 L323.2969,1459.7813 L327.2813,1459.7813 L327.2813,1460.6406 C327.2813,1461.0469 327.3125,1461.2188 327.3906,1461.375 C327.5625,1461.625 327.8438,1461.7813 328.125,1461.7813 C328.3906,1461.7813 328.6563,1461.6406 328.8281,1461.4219 C328.9375,1461.25 328.9688,1461.1094 328.9688,1460.6406 L328.9688,1458.0938 L321.3438,1458.0938 C320.9063,1458.0938 320.7813,1458.1094 320.625,1458.2031 C320.375,1458.3594 320.2188,1458.6563 320.2188,1458.9375 C320.2188,1459.2188 320.3594,1459.4688 320.5781,1459.6406 C320.7344,1459.75 320.9219,1459.7813 321.3438,1459.7813 L321.5938,1459.7813 L321.5938,1466.2969 L321.3438,1466.2969 C320.9375,1466.2969 320.7813,1466.3125 320.625,1466.4219 C320.375,1466.5938 320.2188,1466.8594 320.2188,1467.1563 C320.2188,1467.4219 320.3594,1467.6719 320.5781,1467.8281 C320.7188,1467.9531 320.9531,1468 321.3438,1468 L329.3438,1468 L329.3438,1465.4219 C329.3438,1464.9844 329.3125,1464.8438 329.2344,1464.6875 C329.0625,1464.4375 328.7813,1464.2813 328.5,1464.2813 C328.2344,1464.2813 327.9688,1464.3906 327.7969,1464.6406 C327.6875,1464.7969 327.6563,1464.9375 327.6563,1465.4219 L327.6563,1466.2969 L323.2969,1466.2969 L323.2969,1463.875 Z " fill="#000000"/><text fill="#000000" font-family="sans-serif" font-size="14" lengthAdjust="spacing" textLength="42" x="338.5" y="1467.8467">Fecha</text><line style="stroke:#181818;stroke-width:0.5;" x1="310.5" x2="382.5" y1="1479" y2="1479"/><ellipse cx="320.5" cy="1492.6484" fill="none" rx="3" ry="3" style="stroke:#038048;stroke-width:1.0;"/><text fill="#000000" font-family="sans-serif" font-size="14" lengthAdjust="spacing" textLength="21" x="329.5" y="1495.9951">dia</text><ellipse cx="320.5" cy="1508.9453" fill="none" rx="3" ry="3" style="stroke:#038048;stroke-width:1.0;"/><text fill="#000000" font-family="sans-serif" font-size="14" lengthAdjust="spacing" textLength="30" x="329.5" y="1512.292">mes</text><ellipse cx="320.5" cy="1525.2422" fill="none" rx="3" ry="3" style="stroke:#038048;stroke-width:1.0;"/><text fill="#000000" font-family="sans-serif" font-size="14" lengthAdjust="spacing" textLength="26" x="329.5" y="1528.5889">a&#241;o</text><line style="stroke:#181818;stroke-width:0.5;" x1="310.5" x2="382.5" y1="1535.8906" y2="1535.8906"/></g><!--class Horas--><g id="elem_Horas"><rect codeLine="60" fill="#F1F1F1" height="80.5938" id="Horas" rx="2.5" ry="2.5" style="stroke:#181818;stroke-width:0.5;" width="84" x="418.5" y="1455"/><ellipse cx="438.9" cy="1471" fill="#ADD1B2" rx="11" ry="11" style="stroke:#181818;stroke-width:1.0;"/><path d="M437.6969,1471.875 L439.15,1471.875 L439.15,1471.9844 C439.15,1472.3906 439.1813,1472.5469 439.2594,1472.7031 C439.4156,1472.9531 439.6969,1473.1094 439.9938,1473.1094 C440.2438,1473.1094 440.5094,1472.9688 440.6656,1472.75 C440.7906,1472.5938 440.8219,1472.4375 440.8219,1471.9844 L440.8219,1470.0625 C440.8219,1469.9063 440.8219,1469.8594 440.8063,1469.7031 C440.7438,1469.2344 440.4313,1468.9219 439.9781,1468.9219 C439.7281,1468.9219 439.4625,1469.0625 439.2906,1469.2813 C439.1813,1469.4531 439.15,1469.6094 439.15,1470.0625 L439.15,1470.1875 L437.6969,1470.1875 L437.6969,1467.7813 L441.6813,1467.7813 L441.6813,1468.6406 C441.6813,1469.0469 441.7125,1469.2188 441.7906,1469.375 C441.9625,1469.625 442.2438,1469.7813 442.525,1469.7813 C442.7906,1469.7813 443.0563,1469.6406 443.2281,1469.4219 C443.3375,1469.25 443.3688,1469.1094 443.3688,1468.6406 L443.3688,1466.0938 L435.7438,1466.0938 C435.3063,1466.0938 435.1813,1466.1094 435.025,1466.2031 C434.775,1466.3594 434.6188,1466.6563 434.6188,1466.9375 C434.6188,1467.2188 434.7594,1467.4688 434.9781,1467.6406 C435.1344,1467.75 435.3219,1467.7813 435.7438,1467.7813 L435.9938,1467.7813 L435.9938,1474.2969 L435.7438,1474.2969 C435.3375,1474.2969 435.1813,1474.3125 435.025,1474.4219 C434.775,1474.5938 434.6188,1474.8594 434.6188,1475.1563 C434.6188,1475.4219 434.7594,1475.6719 434.9781,1475.8281 C435.1188,1475.9531 435.3531,1476 435.7438,1476 L443.7438,1476 L443.7438,1473.4219 C443.7438,1472.9844 443.7125,1472.8438 443.6344,1472.6875 C443.4625,1472.4375 443.1813,1472.2813 442.9,1472.2813 C442.6344,1472.2813 442.3688,1472.3906 442.1969,1472.6406 C442.0875,1472.7969 442.0563,1472.9375 442.0563,1473.4219 L442.0563,1474.2969 L437.6969,1474.2969 L437.6969,1471.875 Z " fill="#000000"/><text fill="#000000" font-family="sans-serif" font-size="14" lengthAdjust="spacing" textLength="40" x="454.1" y="1475.8467">Horas</text><line style="stroke:#181818;stroke-width:0.5;" x1="419.5" x2="501.5" y1="1487" y2="1487"/><ellipse cx="429.5" cy="1500.6484" fill="none" rx="3" ry="3" style="stroke:#038048;stroke-width:1.0;"/><text fill="#000000" font-family="sans-serif" font-size="14" lengthAdjust="spacing" textLength="32" x="438.5" y="1503.9951">hora</text><ellipse cx="429.5" cy="1516.9453" fill="none" rx="3" ry="3" style="stroke:#038048;stroke-width:1.0;"/><text fill="#000000" font-family="sans-serif" font-size="14" lengthAdjust="spacing" textLength="58" x="438.5" y="1520.292">minutos</text><line style="stroke:#181818;stroke-width:0.5;" x1="419.5" x2="501.5" y1="1527.5938" y2="1527.5938"/></g><!--class SistemaDeReservas--><g id="elem_SistemaDeReservas"><rect fill="#F1F1F1" height="48" id="SistemaDeReservas" rx="2.5" ry="2.5" style="stroke:#181818;stroke-width:0.5;" width="174" x="381.5" y="7"/><ellipse cx="396.5" cy="23" fill="#ADD1B2" rx="11" ry="11" style="stroke:#181818;stroke-width:1.0;"/><path d="M398.8438,18.6719 C397.9063,18.2344 397.3125,18.0938 396.4375,18.0938 C393.8125,18.0938 391.8125,20.1719 391.8125,22.8906 L391.8125,24.0156 C391.8125,26.5938 393.9219,28.4844 396.8125,28.4844 C398.0313,28.4844 399.1875,28.1875 399.9375,27.6406 C400.5156,27.2344 400.8438,26.7813 400.8438,26.3906 C400.8438,25.9375 400.4531,25.5469 399.9844,25.5469 C399.7656,25.5469 399.5625,25.625 399.375,25.8125 C398.9219,26.2969 398.9219,26.2969 398.7344,26.3906 C398.3125,26.6563 397.625,26.7813 396.8594,26.7813 C394.8125,26.7813 393.5156,25.6875 393.5156,23.9844 L393.5156,22.8906 C393.5156,21.1094 394.7656,19.7969 396.5,19.7969 C397.0781,19.7969 397.6875,19.9531 398.1563,20.2031 C398.6406,20.4844 398.8125,20.7031 398.9063,21.1094 C398.9688,21.5156 399,21.6406 399.1406,21.7656 C399.2813,21.9063 399.5156,22.0156 399.7344,22.0156 C400,22.0156 400.2656,21.875 400.4375,21.6563 C400.5469,21.5 400.5781,21.3125 400.5781,20.8906 L400.5781,19.4688 C400.5781,19.0313 400.5625,18.9063 400.4688,18.75 C400.3125,18.4844 400.0313,18.3438 399.7344,18.3438 C399.4375,18.3438 399.2344,18.4375 399.0156,18.75 L398.8438,18.6719 Z " fill="#000000"/><text fill="#000000" font-family="sans-serif" font-size="14" lengthAdjust="spacing" textLength="142" x="410.5" y="27.8467">SistemaDeReservas</text><line style="stroke:#181818;stroke-width:0.5;" x1="382.5" x2="554.5" y1="39" y2="39"/><line style="stroke:#181818;stroke-width:0.5;" x1="382.5" x2="554.5" y1="47" y2="47"/></g><!--link SistemaDeReservas to Usuario--><g id="link_SistemaDeReservas_Usuario"><path codeLine="67" d="M468.5,55.22 C468.5,88.46 468.5,150.36 468.5,193.65 " fill="none" id="SistemaDeReservas-Usuario" style="stroke:#181818;stroke-width:1.0;"/><text fill="#000000" font-family="sans-serif" font-size="13" lengthAdjust="spacing" textLength="35" x="469.5" y="129.0669">Tiene</text></g><!--link Usuario to Reserva--><g id="link_Usuario_Reserva"><path codeLine="68" d="M428.497,291.25 C415.044,309.33 401.045,330.71 391.5,352 C380.41,376.73 373.63,406.51 369.639,429.9 " fill="none" id="Usuario-Reserva" style="stroke:#181818;stroke-width:1.0;"/><text fill="#000000" font-family="sans-serif" font-size="13" lengthAdjust="spacing" textLength="32" x="392.5" y="365.0669">Hace</text></g><!--link Calendario to Reserva--><g id="link_Calendario_Reserva"><path codeLine="69" d="M358.599,1259.881 C339.043,1242.437 320.5,1218.719 320.5,1191.5 C320.5,579.5 320.5,579.5 320.5,579.5 C320.5,555.711 329.769,531.01 339.799,511.24 " fill="none" id="Calendario-Reserva" style="stroke:#181818;stroke-width:1.0;"/><text fill="#000000" font-family="sans-serif" font-size="13" lengthAdjust="spacing" textLength="32" x="321.5" y="890.5669">tiene</text></g><!--link Usuario to Pagos--><g id="link_Usuario_Pagos"><path codeLine="70" d="M512.579,242.5 C537.288,242.5 568.436,242.5 595.253,242.5 " fill="none" id="Usuario-Pagos" style="stroke:#181818;stroke-width:1.0;"/><text fill="#000000" font-family="sans-serif" font-size="13" lengthAdjust="spacing" textLength="46" x="531" y="235.5669">Realiza</text></g><!--link Pagos to Factura--><g id="link_Pagos_Factura"><path codeLine="71" d="M642.051,283.12 C629.086,324.39 608.894,388.67 595.934,429.92 " fill="none" id="Pagos-Factura" style="stroke:#181818;stroke-width:1.0;"/><text fill="#000000" font-family="sans-serif" font-size="13" lengthAdjust="spacing" textLength="75" x="620.5" y="365.0669">Que genera</text></g><!--link Factura to Usuario--><g id="link_Factura_Usuario"><path codeLine="72" d="M536.654,429.68 C519.557,412.69 501.689,391.58 490.5,369 C478.566,344.92 473.004,315.43 470.455,291.08 " fill="none" id="Factura-Usuario" style="stroke:#181818;stroke-width:1.0;"/><text fill="#000000" font-family="sans-serif" font-size="13" lengthAdjust="spacing" textLength="114" x="491.5" y="365.0669">Que se le entrega</text></g><!--link Reserva to Pistas--><g id="link_Reserva_Pistas"><path codeLine="73" d="M407.694,511.23 C450.418,550.53 515.443,610.342 558.203,649.674 " fill="none" id="Reserva-Pistas" style="stroke:#181818;stroke-width:1.0;"/><text fill="#000000" font-family="sans-serif" font-size="13" lengthAdjust="spacing" textLength="82" x="492.5" y="585.0669">Se realiza en</text></g><!--link CancelarReserva to Reserva--><g id="link_CancelarReserva_Reserva"><path codeLine="74" d="M158.071,470.5 C206.852,470.5 269.059,470.5 312.374,470.5 " fill="none" id="CancelarReserva-Reserva" style="stroke:#181818;stroke-width:1.0;"/><text fill="#000000" font-family="sans-serif" font-size="13" lengthAdjust="spacing" textLength="118" x="176.25" y="463.5669">Se puede cancelar</text></g><!--link Pistas to Padel--><g id="link_Pistas_Padel"><path codeLine="75" d="M650.723,727.442 C700.417,763.728 776.392,819.204 823.67,853.726 " fill="none" id="Pistas-Padel" style="stroke:#181818;stroke-width:1.0;"/></g><!--link Pistas to Polideportivo--><g id="link_Pistas_Polideportivo"><path codeLine="76" d="M573.855,731.125 C548.553,767.391 511.611,820.342 488.326,853.716 " fill="none" id="Pistas-Polideportivo" style="stroke:#181818;stroke-width:1.0;"/></g><!--link Pistas to Voleibol--><g id="link_Pistas_Voleibol"><path codeLine="77" d="M614.811,731.125 C626.993,767.391 644.78,820.342 655.991,853.716 " fill="none" id="Pistas-Voleibol" style="stroke:#181818;stroke-width:1.0;"/></g><!--link Pistas to Tarifas--><g id="link_Pistas_Tarifas"><path codeLine="78" d="M650.612,690.5 C672.889,690.5 699.262,690.5 721.937,690.5 " fill="none" id="Pistas-Tarifas" style="stroke:#181818;stroke-width:1.0;"/><text fill="#000000" font-family="sans-serif" font-size="13" lengthAdjust="spacing" textLength="35" x="668.75" y="683.5669">Tiene</text></g><!--link Voleibol to Disponibilidad--><g id="link_Voleibol_Disponibilidad"><path codeLine="79" d="M650.719,918.406 C631.744,956.167 600.095,1019.152 581.17,1056.814 " fill="none" id="Voleibol-Disponibilidad" style="stroke:#181818;stroke-width:1.0;"/><text fill="#000000" font-family="sans-serif" font-size="13" lengthAdjust="spacing" textLength="35" x="619.5" y="992.0669">Tiene</text></g><!--link Polideportivo to Disponibilidad--><g id="link_Polideportivo_Disponibilidad"><path codeLine="80" d="M481.969,918.406 C500.568,956.167 531.59,1019.152 550.14,1056.814 " fill="none" id="Polideportivo-Disponibilidad" style="stroke:#181818;stroke-width:1.0;"/><text fill="#000000" font-family="sans-serif" font-size="13" lengthAdjust="spacing" textLength="35" x="520.5" y="992.0669">Tiene</text></g><!--link Padel to Disponibilidad--><g id="link_Padel_Disponibilidad"><path codeLine="81" d="M819.799,918.186 C763.325,955.897 668.833,1018.997 612.311,1056.741 " fill="none" id="Padel-Disponibilidad" style="stroke:#181818;stroke-width:1.0;"/><text fill="#000000" font-family="sans-serif" font-size="13" lengthAdjust="spacing" textLength="35" x="726.5" y="992.0669">Tiene</text></g><!--link Disponibilidad to Calendario--><g id="link_Disponibilidad_Calendario"><path codeLine="82" d="M540.188,1121.406 C509.753,1159.167 458.99,1222.152 428.635,1259.814 " fill="none" id="Disponibilidad-Calendario" style="stroke:#181818;stroke-width:1.0;"/><text fill="#000000" font-family="sans-serif" font-size="13" lengthAdjust="spacing" textLength="35" x="491.5" y="1195.0669">Tiene</text></g><!--link Calendario to Fecha--><g id="link_Calendario_Fecha"><path codeLine="83" d="M394.719,1324.043 C385.444,1356.83 370.704,1408.936 359.961,1446.9158 " fill="none" id="Calendario-Fecha" style="stroke:#181818;stroke-width:1.0;"/></g><!--link Calendario to Horas--><g id="link_Calendario_Horas"><path codeLine="84" d="M412.281,1324.043 C422.212,1359.148 438.408,1416.401 449.255,1454.7484 " fill="none" id="Calendario-Horas" style="stroke:#181818;stroke-width:1.0;"/></g><!--SRC=[XPDBJYGn38RtEKNsexf0RNa8990ONdjtbRknb8vBIQe5C-9Gd86BaIVj806hgjXV7Dk_ZJPGUD4tv0Du_Lzf_KTRtcySvjy95fXeXbczAeMLXHbDHK-YtoV_DJpJ7YJ5XcPSs0KwyA_q8nka3NyJbXOMx0aOj3CuQc7n43ti1VBWL-4NzM0CPl9VG8DRjjmLjkFMWpq6dZbPof7Z2m8zXoci3YgynUa9plRaYMq9pW6CmEzZDjlF_YuE9-8BTh83f-GNjhGXa-gkv5DaVFCOb2NUeaTtw3Auj1JZ7i_dPBkssGaDkED5KKx2QwYPe7R0vo-ylydAKzfUf5TOicjLGAcxE4knpwTON_9w68OcoQZl2Isgfb1oLMxK5p2XQlaDLuEGUjIXltSx5Bt6U1qC_GDLv4i1gpgZ_hkYtiLhKIdL9EkIIO17RL37yXpkuFXynCfMZFeEjIkFHEnBWbrJCxgiE6FSdE9H9KWEbnP7dkMA27jRXchAjTO9Qktxt9V4zwFJa7u1V-3oEd_lxws9aweKHgnaxdyQfw_6F3WV]--></g></svg>